<mxfile host="app.diagrams.net" modified="2024-03-26T20:50:54.621Z" agent="Mozilla/5.0 (Macintosh; Intel Mac OS X 10_15_7) AppleWebKit/605.1.15 (KHTML, like Gecko) Version/17.1 Safari/605.1.15" etag="uRGtEdxR5YaIXH90Xf3i" version="24.1.0" type="github">
  <diagram name="Page-1" id="8FX5p6TpELWR-fEjmLI2">
    <mxGraphModel dx="1350" dy="1444" grid="0" gridSize="10" guides="1" tooltips="1" connect="1" arrows="1" fold="1" page="0" pageScale="1" pageWidth="827" pageHeight="1169" math="0" shadow="0">
      <root>
        <mxCell id="0" />
        <mxCell id="1" parent="0" />
        <mxCell id="hmgdlU0BTKwxbLTxgRv6-2" value="6" style="ellipse;whiteSpace=wrap;html=1;container=1;movable=1;resizable=1;rotatable=1;deletable=1;editable=1;locked=0;connectable=1;fillColor=#f8cecc;strokeColor=#b85450;" vertex="1" parent="1">
          <mxGeometry x="316" y="-101" width="39" height="39" as="geometry">
            <mxRectangle x="316" y="-101" width="39" height="39" as="alternateBounds" />
          </mxGeometry>
        </mxCell>
        <mxCell id="hmgdlU0BTKwxbLTxgRv6-44" style="edgeStyle=none;curved=1;rounded=0;orthogonalLoop=1;jettySize=auto;html=1;exitX=1;exitY=1;exitDx=0;exitDy=0;entryX=0.5;entryY=0;entryDx=0;entryDy=0;fontSize=12;startSize=8;endSize=8;startArrow=none;startFill=0;endArrow=none;endFill=0;movable=1;resizable=1;rotatable=1;deletable=1;editable=1;locked=0;connectable=1;" edge="1" parent="1" source="hmgdlU0BTKwxbLTxgRv6-12" target="hmgdlU0BTKwxbLTxgRv6-16">
          <mxGeometry relative="1" as="geometry" />
        </mxCell>
        <mxCell id="hmgdlU0BTKwxbLTxgRv6-43" style="edgeStyle=none;curved=1;rounded=0;orthogonalLoop=1;jettySize=auto;html=1;exitX=1;exitY=0;exitDx=0;exitDy=0;entryX=0;entryY=1;entryDx=0;entryDy=0;fontSize=12;startSize=8;endSize=8;endArrow=none;endFill=0;movable=1;resizable=1;rotatable=1;deletable=1;editable=1;locked=0;connectable=1;" edge="1" parent="1" source="hmgdlU0BTKwxbLTxgRv6-13" target="hmgdlU0BTKwxbLTxgRv6-12">
          <mxGeometry relative="1" as="geometry" />
        </mxCell>
        <mxCell id="hmgdlU0BTKwxbLTxgRv6-46" style="edgeStyle=none;curved=1;rounded=0;orthogonalLoop=1;jettySize=auto;html=1;exitX=1;exitY=1;exitDx=0;exitDy=0;fontSize=12;startSize=8;endSize=8;endArrow=none;endFill=0;movable=1;resizable=1;rotatable=1;deletable=1;editable=1;locked=0;connectable=1;" edge="1" parent="1" source="hmgdlU0BTKwxbLTxgRv6-19" target="hmgdlU0BTKwxbLTxgRv6-23">
          <mxGeometry relative="1" as="geometry" />
        </mxCell>
        <mxCell id="hmgdlU0BTKwxbLTxgRv6-45" style="edgeStyle=none;curved=1;rounded=0;orthogonalLoop=1;jettySize=auto;html=1;exitX=1;exitY=0;exitDx=0;exitDy=0;entryX=0;entryY=1;entryDx=0;entryDy=0;fontSize=12;startSize=8;endSize=8;endArrow=none;endFill=0;movable=1;resizable=1;rotatable=1;deletable=1;editable=1;locked=0;connectable=1;" edge="1" parent="1" source="hmgdlU0BTKwxbLTxgRv6-20" target="hmgdlU0BTKwxbLTxgRv6-19">
          <mxGeometry relative="1" as="geometry" />
        </mxCell>
        <mxCell id="hmgdlU0BTKwxbLTxgRv6-48" style="edgeStyle=none;curved=1;rounded=0;orthogonalLoop=1;jettySize=auto;html=1;exitX=1;exitY=1;exitDx=0;exitDy=0;fontSize=12;startSize=8;endSize=8;endArrow=none;endFill=0;movable=1;resizable=1;rotatable=1;deletable=1;editable=1;locked=0;connectable=1;" edge="1" parent="1" source="hmgdlU0BTKwxbLTxgRv6-26" target="hmgdlU0BTKwxbLTxgRv6-31">
          <mxGeometry relative="1" as="geometry" />
        </mxCell>
        <mxCell id="hmgdlU0BTKwxbLTxgRv6-47" style="edgeStyle=none;curved=1;rounded=0;orthogonalLoop=1;jettySize=auto;html=1;exitX=1;exitY=0;exitDx=0;exitDy=0;entryX=0;entryY=1;entryDx=0;entryDy=0;fontSize=12;startSize=8;endSize=8;endArrow=none;endFill=0;movable=1;resizable=1;rotatable=1;deletable=1;editable=1;locked=0;connectable=1;" edge="1" parent="1" source="hmgdlU0BTKwxbLTxgRv6-27" target="hmgdlU0BTKwxbLTxgRv6-26">
          <mxGeometry relative="1" as="geometry" />
        </mxCell>
        <mxCell id="hmgdlU0BTKwxbLTxgRv6-35" value="" style="endArrow=none;html=1;rounded=0;fontSize=12;startSize=8;endSize=8;curved=1;entryX=0;entryY=1;entryDx=0;entryDy=0;exitX=1;exitY=0;exitDx=0;exitDy=0;movable=1;resizable=1;rotatable=1;deletable=1;editable=1;locked=0;connectable=1;" edge="1" parent="1" source="hmgdlU0BTKwxbLTxgRv6-3" target="hmgdlU0BTKwxbLTxgRv6-2">
          <mxGeometry width="50" height="50" relative="1" as="geometry">
            <mxPoint x="344" y="104" as="sourcePoint" />
            <mxPoint x="394" y="54" as="targetPoint" />
          </mxGeometry>
        </mxCell>
        <mxCell id="hmgdlU0BTKwxbLTxgRv6-36" value="" style="endArrow=none;html=1;rounded=0;fontSize=12;startSize=8;endSize=8;curved=1;entryX=0;entryY=0;entryDx=0;entryDy=0;exitX=1;exitY=1;exitDx=0;exitDy=0;movable=1;resizable=1;rotatable=1;deletable=1;editable=1;locked=0;connectable=1;" edge="1" parent="1" source="hmgdlU0BTKwxbLTxgRv6-2" target="hmgdlU0BTKwxbLTxgRv6-18">
          <mxGeometry width="50" height="50" relative="1" as="geometry">
            <mxPoint x="181" y="35" as="sourcePoint" />
            <mxPoint x="335" y="-58" as="targetPoint" />
          </mxGeometry>
        </mxCell>
        <mxCell id="hmgdlU0BTKwxbLTxgRv6-37" value="" style="endArrow=none;html=1;rounded=0;fontSize=12;startSize=8;endSize=8;curved=1;entryX=0;entryY=1;entryDx=0;entryDy=0;exitX=1;exitY=0;exitDx=0;exitDy=0;movable=1;resizable=1;rotatable=1;deletable=1;editable=1;locked=0;connectable=1;" edge="1" parent="1" source="hmgdlU0BTKwxbLTxgRv6-19" target="hmgdlU0BTKwxbLTxgRv6-18">
          <mxGeometry width="50" height="50" relative="1" as="geometry">
            <mxPoint x="467.2885822331218" y="55.71141776687773" as="sourcePoint" />
            <mxPoint x="577" y="-10" as="targetPoint" />
          </mxGeometry>
        </mxCell>
        <mxCell id="hmgdlU0BTKwxbLTxgRv6-38" value="" style="endArrow=none;html=1;rounded=0;fontSize=12;startSize=8;endSize=8;curved=1;entryX=1;entryY=1;entryDx=0;entryDy=0;exitX=0;exitY=0;exitDx=0;exitDy=0;movable=1;resizable=1;rotatable=1;deletable=1;editable=1;locked=0;connectable=1;" edge="1" parent="1" source="hmgdlU0BTKwxbLTxgRv6-26" target="hmgdlU0BTKwxbLTxgRv6-18">
          <mxGeometry width="50" height="50" relative="1" as="geometry">
            <mxPoint x="483" y="112" as="sourcePoint" />
            <mxPoint x="577" y="63" as="targetPoint" />
          </mxGeometry>
        </mxCell>
        <mxCell id="hmgdlU0BTKwxbLTxgRv6-41" value="" style="endArrow=none;html=1;rounded=0;fontSize=12;startSize=8;endSize=8;curved=1;entryX=0;entryY=1;entryDx=0;entryDy=0;exitX=1;exitY=0;exitDx=0;exitDy=0;movable=1;resizable=1;rotatable=1;deletable=1;editable=1;locked=0;connectable=1;" edge="1" parent="1" source="hmgdlU0BTKwxbLTxgRv6-5" target="hmgdlU0BTKwxbLTxgRv6-4">
          <mxGeometry width="50" height="50" relative="1" as="geometry">
            <mxPoint x="154" y="62" as="sourcePoint" />
            <mxPoint x="60" y="111" as="targetPoint" />
          </mxGeometry>
        </mxCell>
        <mxCell id="hmgdlU0BTKwxbLTxgRv6-42" value="" style="endArrow=none;html=1;rounded=0;fontSize=12;startSize=8;endSize=8;curved=1;entryX=0;entryY=0;entryDx=0;entryDy=0;exitX=1;exitY=1;exitDx=0;exitDy=0;movable=1;resizable=1;rotatable=1;deletable=1;editable=1;locked=0;connectable=1;" edge="1" parent="1" source="hmgdlU0BTKwxbLTxgRv6-4" target="hmgdlU0BTKwxbLTxgRv6-9">
          <mxGeometry width="50" height="50" relative="1" as="geometry">
            <mxPoint x="-11" y="191" as="sourcePoint" />
            <mxPoint x="70" y="121" as="targetPoint" />
          </mxGeometry>
        </mxCell>
        <mxCell id="hmgdlU0BTKwxbLTxgRv6-65" value="" style="group;movable=1;resizable=1;rotatable=1;deletable=1;editable=1;locked=0;connectable=1;" vertex="1" connectable="0" parent="1">
          <mxGeometry x="-75" y="236" width="761" height="33" as="geometry" />
        </mxCell>
        <mxCell id="hmgdlU0BTKwxbLTxgRv6-7" value="(0, 0)" style="rounded=0;whiteSpace=wrap;html=1;movable=1;resizable=1;rotatable=1;deletable=1;editable=1;locked=0;connectable=1;" vertex="1" parent="hmgdlU0BTKwxbLTxgRv6-65">
          <mxGeometry width="49" height="32" as="geometry" />
        </mxCell>
        <mxCell id="hmgdlU0BTKwxbLTxgRv6-8" value="(3, 4)" style="rounded=0;whiteSpace=wrap;html=1;movable=1;resizable=1;rotatable=1;deletable=1;editable=1;locked=0;connectable=1;" vertex="1" parent="hmgdlU0BTKwxbLTxgRv6-65">
          <mxGeometry x="59" width="49" height="32" as="geometry" />
        </mxCell>
        <mxCell id="hmgdlU0BTKwxbLTxgRv6-10" value="(4, 1)" style="rounded=0;whiteSpace=wrap;html=1;movable=1;resizable=1;rotatable=1;deletable=1;editable=1;locked=0;connectable=1;" vertex="1" parent="hmgdlU0BTKwxbLTxgRv6-65">
          <mxGeometry x="119" width="49" height="32" as="geometry" />
        </mxCell>
        <mxCell id="hmgdlU0BTKwxbLTxgRv6-11" value="(5, 6)" style="rounded=0;whiteSpace=wrap;html=1;movable=1;resizable=1;rotatable=1;deletable=1;editable=1;locked=0;connectable=1;fillColor=#f8cecc;strokeColor=#b85450;" vertex="1" parent="hmgdlU0BTKwxbLTxgRv6-65">
          <mxGeometry x="178" width="49" height="32" as="geometry" />
        </mxCell>
        <mxCell id="hmgdlU0BTKwxbLTxgRv6-14" value="(1, 7)" style="rounded=0;whiteSpace=wrap;html=1;movable=1;resizable=1;rotatable=1;deletable=1;editable=1;locked=0;connectable=1;" vertex="1" parent="hmgdlU0BTKwxbLTxgRv6-65">
          <mxGeometry x="237" width="49" height="32" as="geometry" />
        </mxCell>
        <mxCell id="hmgdlU0BTKwxbLTxgRv6-15" value="(2, 9)" style="rounded=0;whiteSpace=wrap;html=1;movable=1;resizable=1;rotatable=1;deletable=1;editable=1;locked=0;connectable=1;" vertex="1" parent="hmgdlU0BTKwxbLTxgRv6-65">
          <mxGeometry x="297" width="49" height="32" as="geometry" />
        </mxCell>
        <mxCell id="hmgdlU0BTKwxbLTxgRv6-21" value="(9, 5)" style="rounded=0;whiteSpace=wrap;html=1;movable=1;resizable=1;rotatable=1;deletable=1;editable=1;locked=0;connectable=1;fillColor=#f8cecc;strokeColor=#b85450;" vertex="1" parent="hmgdlU0BTKwxbLTxgRv6-65">
          <mxGeometry x="415" y="1" width="49" height="32" as="geometry" />
        </mxCell>
        <mxCell id="hmgdlU0BTKwxbLTxgRv6-22" value="(8, 8)" style="rounded=0;whiteSpace=wrap;html=1;movable=1;resizable=1;rotatable=1;deletable=1;editable=1;locked=0;connectable=1;fillColor=#f8cecc;strokeColor=#b85450;" vertex="1" parent="hmgdlU0BTKwxbLTxgRv6-65">
          <mxGeometry x="474" y="1" width="49" height="32" as="geometry" />
        </mxCell>
        <mxCell id="hmgdlU0BTKwxbLTxgRv6-24" value="(11, 5)" style="rounded=0;whiteSpace=wrap;html=1;movable=1;resizable=1;rotatable=1;deletable=1;editable=1;locked=0;connectable=1;fillColor=#f8cecc;strokeColor=#b85450;" vertex="1" parent="hmgdlU0BTKwxbLTxgRv6-65">
          <mxGeometry x="534" y="1" width="49" height="32" as="geometry" />
        </mxCell>
        <mxCell id="hmgdlU0BTKwxbLTxgRv6-25" value="12, 6)" style="rounded=0;whiteSpace=wrap;html=1;movable=1;resizable=1;rotatable=1;deletable=1;editable=1;locked=0;connectable=1;fillColor=#f8cecc;strokeColor=#b85450;" vertex="1" parent="hmgdlU0BTKwxbLTxgRv6-65">
          <mxGeometry x="593" y="1" width="49" height="32" as="geometry" />
        </mxCell>
        <mxCell id="hmgdlU0BTKwxbLTxgRv6-29" value="(10,10)" style="rounded=0;whiteSpace=wrap;html=1;movable=1;resizable=1;rotatable=1;deletable=1;editable=1;locked=0;connectable=1;fillColor=#f8cecc;strokeColor=#b85450;" vertex="1" parent="hmgdlU0BTKwxbLTxgRv6-65">
          <mxGeometry x="652" y="1" width="49" height="32" as="geometry" />
        </mxCell>
        <mxCell id="hmgdlU0BTKwxbLTxgRv6-30" value="(7, 13)" style="rounded=0;whiteSpace=wrap;html=1;movable=1;resizable=1;rotatable=1;deletable=1;editable=1;locked=0;connectable=1;" vertex="1" parent="hmgdlU0BTKwxbLTxgRv6-65">
          <mxGeometry x="712" y="1" width="49" height="32" as="geometry" />
        </mxCell>
        <mxCell id="hmgdlU0BTKwxbLTxgRv6-4" value="3" style="ellipse;whiteSpace=wrap;html=1;aspect=fixed;movable=1;resizable=1;rotatable=1;deletable=1;editable=1;locked=0;connectable=1;fillColor=#f8cecc;strokeColor=#b85450;" vertex="1" parent="1">
          <mxGeometry x="19" y="66" width="39" height="39" as="geometry" />
        </mxCell>
        <mxCell id="hmgdlU0BTKwxbLTxgRv6-12" value="2" style="ellipse;whiteSpace=wrap;html=1;aspect=fixed;movable=1;resizable=1;rotatable=1;deletable=1;editable=1;locked=0;connectable=1;fillColor=#f8cecc;strokeColor=#b85450;" vertex="1" parent="1">
          <mxGeometry x="256" y="66" width="39" height="39" as="geometry" />
        </mxCell>
        <mxCell id="hmgdlU0BTKwxbLTxgRv6-19" value="9" style="ellipse;whiteSpace=wrap;html=1;aspect=fixed;movable=1;resizable=1;rotatable=1;deletable=1;editable=1;locked=0;connectable=1;fillColor=#f8cecc;strokeColor=#b85450;" vertex="1" parent="1">
          <mxGeometry x="434" y="67" width="39" height="39" as="geometry" />
        </mxCell>
        <mxCell id="hmgdlU0BTKwxbLTxgRv6-26" value="10" style="ellipse;whiteSpace=wrap;html=1;aspect=fixed;movable=1;resizable=1;rotatable=1;deletable=1;editable=1;locked=0;connectable=1;fillColor=#f8cecc;strokeColor=#b85450;" vertex="1" parent="1">
          <mxGeometry x="671" y="67" width="39" height="39" as="geometry" />
        </mxCell>
        <mxCell id="hmgdlU0BTKwxbLTxgRv6-40" value="" style="endArrow=none;html=1;rounded=0;fontSize=12;startSize=8;endSize=8;curved=1;entryX=1;entryY=0;entryDx=0;entryDy=0;exitX=0;exitY=1;exitDx=0;exitDy=0;movable=1;resizable=1;rotatable=1;deletable=1;editable=1;locked=0;connectable=1;" edge="1" parent="1" source="hmgdlU0BTKwxbLTxgRv6-3" target="hmgdlU0BTKwxbLTxgRv6-4">
          <mxGeometry width="50" height="50" relative="1" as="geometry">
            <mxPoint x="274" y="74" as="sourcePoint" />
            <mxPoint x="181" y="25" as="targetPoint" />
          </mxGeometry>
        </mxCell>
        <mxCell id="hmgdlU0BTKwxbLTxgRv6-39" value="" style="endArrow=none;html=1;rounded=0;fontSize=12;startSize=8;endSize=8;curved=1;entryX=1;entryY=1;entryDx=0;entryDy=0;exitX=0;exitY=0;exitDx=0;exitDy=0;movable=1;resizable=1;rotatable=1;deletable=1;editable=1;locked=0;connectable=1;" edge="1" parent="1" source="hmgdlU0BTKwxbLTxgRv6-12" target="hmgdlU0BTKwxbLTxgRv6-3">
          <mxGeometry width="50" height="50" relative="1" as="geometry">
            <mxPoint x="698" y="75" as="sourcePoint" />
            <mxPoint x="604" y="26" as="targetPoint" />
          </mxGeometry>
        </mxCell>
        <mxCell id="hmgdlU0BTKwxbLTxgRv6-3" value="6" style="ellipse;whiteSpace=wrap;html=1;aspect=fixed;movable=1;resizable=1;rotatable=1;deletable=1;editable=1;locked=0;connectable=1;fillColor=#f8cecc;strokeColor=#b85450;" vertex="1" parent="1">
          <mxGeometry x="138" y="-18" width="39" height="39" as="geometry" />
        </mxCell>
        <mxCell id="hmgdlU0BTKwxbLTxgRv6-18" value="8" style="ellipse;whiteSpace=wrap;html=1;aspect=fixed;movable=1;resizable=1;rotatable=1;deletable=1;editable=1;locked=0;connectable=1;fillColor=#f8cecc;strokeColor=#b85450;" vertex="1" parent="1">
          <mxGeometry x="553" y="-17" width="39" height="39" as="geometry" />
        </mxCell>
        <mxCell id="hmgdlU0BTKwxbLTxgRv6-5" value="0" style="ellipse;whiteSpace=wrap;html=1;aspect=fixed;movable=1;resizable=1;rotatable=1;deletable=1;editable=1;locked=0;connectable=1;fillColor=#dae8fc;strokeColor=#6c8ebf;" vertex="1" parent="1">
          <mxGeometry x="-40" y="149" width="39" height="39" as="geometry" />
        </mxCell>
        <mxCell id="hmgdlU0BTKwxbLTxgRv6-9" value="1" style="ellipse;whiteSpace=wrap;html=1;aspect=fixed;movable=1;resizable=1;rotatable=1;deletable=1;editable=1;locked=0;connectable=1;fillColor=#f8cecc;strokeColor=#b85450;" vertex="1" parent="1">
          <mxGeometry x="79" y="150" width="38" height="38" as="geometry" />
        </mxCell>
        <mxCell id="hmgdlU0BTKwxbLTxgRv6-13" value="7" style="ellipse;whiteSpace=wrap;html=1;aspect=fixed;movable=1;resizable=1;rotatable=1;deletable=1;editable=1;locked=0;connectable=1;fillColor=#dae8fc;strokeColor=#6c8ebf;" vertex="1" parent="1">
          <mxGeometry x="197" y="149" width="39" height="39" as="geometry" />
        </mxCell>
        <mxCell id="hmgdlU0BTKwxbLTxgRv6-16" value="(6, 11)" style="rounded=0;whiteSpace=wrap;html=1;movable=1;resizable=1;rotatable=1;deletable=1;editable=1;locked=0;connectable=1;fillColor=#f8cecc;strokeColor=#b85450;" vertex="1" parent="1">
          <mxGeometry x="281" y="156" width="49" height="32" as="geometry" />
        </mxCell>
        <mxCell id="hmgdlU0BTKwxbLTxgRv6-20" value="5" style="ellipse;whiteSpace=wrap;html=1;aspect=fixed;movable=1;resizable=1;rotatable=1;deletable=1;editable=1;locked=0;connectable=1;fillColor=#f8cecc;strokeColor=#b85450;" vertex="1" parent="1">
          <mxGeometry x="375" y="150" width="39" height="39" as="geometry" />
        </mxCell>
        <mxCell id="hmgdlU0BTKwxbLTxgRv6-23" value="5" style="ellipse;whiteSpace=wrap;html=1;aspect=fixed;movable=1;resizable=1;rotatable=1;deletable=1;editable=1;locked=0;connectable=1;fillColor=#f8cecc;strokeColor=#b85450;" vertex="1" parent="1">
          <mxGeometry x="493" y="150" width="39" height="39" as="geometry" />
        </mxCell>
        <mxCell id="hmgdlU0BTKwxbLTxgRv6-27" value="10" style="ellipse;whiteSpace=wrap;html=1;aspect=fixed;movable=1;resizable=1;rotatable=1;deletable=1;editable=1;locked=0;connectable=1;fillColor=#f8cecc;strokeColor=#b85450;" vertex="1" parent="1">
          <mxGeometry x="612" y="150" width="39" height="39" as="geometry" />
        </mxCell>
        <mxCell id="hmgdlU0BTKwxbLTxgRv6-31" value="(13, 12)" style="rounded=0;whiteSpace=wrap;html=1;movable=1;resizable=1;rotatable=1;deletable=1;editable=1;locked=0;connectable=1;" vertex="1" parent="1">
          <mxGeometry x="696" y="157" width="49" height="32" as="geometry" />
        </mxCell>
        <mxCell id="hmgdlU0BTKwxbLTxgRv6-59" style="edgeStyle=none;curved=1;rounded=0;orthogonalLoop=1;jettySize=auto;html=1;exitX=1;exitY=1;exitDx=0;exitDy=0;entryX=0.5;entryY=0;entryDx=0;entryDy=0;fontSize=12;startSize=8;endSize=8;endArrow=none;endFill=0;movable=1;resizable=1;rotatable=1;deletable=1;editable=1;locked=0;connectable=1;" edge="1" parent="1" source="hmgdlU0BTKwxbLTxgRv6-5" target="hmgdlU0BTKwxbLTxgRv6-8">
          <mxGeometry relative="1" as="geometry" />
        </mxCell>
        <mxCell id="hmgdlU0BTKwxbLTxgRv6-60" style="edgeStyle=none;curved=1;rounded=0;orthogonalLoop=1;jettySize=auto;html=1;exitX=0;exitY=1;exitDx=0;exitDy=0;entryX=0.5;entryY=0;entryDx=0;entryDy=0;fontSize=12;startSize=8;endSize=8;endArrow=none;endFill=0;movable=1;resizable=1;rotatable=1;deletable=1;editable=1;locked=0;connectable=1;" edge="1" parent="1" source="hmgdlU0BTKwxbLTxgRv6-5" target="hmgdlU0BTKwxbLTxgRv6-7">
          <mxGeometry relative="1" as="geometry" />
        </mxCell>
        <mxCell id="hmgdlU0BTKwxbLTxgRv6-57" style="edgeStyle=none;curved=1;rounded=0;orthogonalLoop=1;jettySize=auto;html=1;exitX=1;exitY=1;exitDx=0;exitDy=0;entryX=0.5;entryY=0;entryDx=0;entryDy=0;fontSize=12;startSize=8;endSize=8;endArrow=none;endFill=0;movable=1;resizable=1;rotatable=1;deletable=1;editable=1;locked=0;connectable=1;" edge="1" parent="1" source="hmgdlU0BTKwxbLTxgRv6-9" target="hmgdlU0BTKwxbLTxgRv6-11">
          <mxGeometry relative="1" as="geometry" />
        </mxCell>
        <mxCell id="hmgdlU0BTKwxbLTxgRv6-58" style="edgeStyle=none;curved=1;rounded=0;orthogonalLoop=1;jettySize=auto;html=1;exitX=0;exitY=1;exitDx=0;exitDy=0;entryX=0.5;entryY=0;entryDx=0;entryDy=0;fontSize=12;startSize=8;endSize=8;endArrow=none;endFill=0;movable=1;resizable=1;rotatable=1;deletable=1;editable=1;locked=0;connectable=1;" edge="1" parent="1" source="hmgdlU0BTKwxbLTxgRv6-9" target="hmgdlU0BTKwxbLTxgRv6-10">
          <mxGeometry relative="1" as="geometry" />
        </mxCell>
        <mxCell id="hmgdlU0BTKwxbLTxgRv6-55" style="edgeStyle=none;curved=1;rounded=0;orthogonalLoop=1;jettySize=auto;html=1;exitX=1;exitY=1;exitDx=0;exitDy=0;entryX=0.5;entryY=0;entryDx=0;entryDy=0;fontSize=12;startSize=8;endSize=8;endArrow=none;endFill=0;movable=1;resizable=1;rotatable=1;deletable=1;editable=1;locked=0;connectable=1;" edge="1" parent="1" source="hmgdlU0BTKwxbLTxgRv6-13" target="hmgdlU0BTKwxbLTxgRv6-15">
          <mxGeometry relative="1" as="geometry" />
        </mxCell>
        <mxCell id="hmgdlU0BTKwxbLTxgRv6-56" style="edgeStyle=none;curved=1;rounded=0;orthogonalLoop=1;jettySize=auto;html=1;exitX=0;exitY=1;exitDx=0;exitDy=0;entryX=0.5;entryY=0;entryDx=0;entryDy=0;fontSize=12;startSize=8;endSize=8;endArrow=none;endFill=0;movable=1;resizable=1;rotatable=1;deletable=1;editable=1;locked=0;connectable=1;" edge="1" parent="1" source="hmgdlU0BTKwxbLTxgRv6-13" target="hmgdlU0BTKwxbLTxgRv6-14">
          <mxGeometry relative="1" as="geometry" />
        </mxCell>
        <mxCell id="hmgdlU0BTKwxbLTxgRv6-53" style="edgeStyle=none;curved=1;rounded=0;orthogonalLoop=1;jettySize=auto;html=1;exitX=1;exitY=1;exitDx=0;exitDy=0;fontSize=12;startSize=8;endSize=8;entryX=0.5;entryY=0;entryDx=0;entryDy=0;endArrow=none;endFill=0;movable=1;resizable=1;rotatable=1;deletable=1;editable=1;locked=0;connectable=1;" edge="1" parent="1" source="hmgdlU0BTKwxbLTxgRv6-20" target="hmgdlU0BTKwxbLTxgRv6-22">
          <mxGeometry relative="1" as="geometry" />
        </mxCell>
        <mxCell id="hmgdlU0BTKwxbLTxgRv6-54" style="edgeStyle=none;curved=1;rounded=0;orthogonalLoop=1;jettySize=auto;html=1;exitX=0;exitY=1;exitDx=0;exitDy=0;entryX=0.5;entryY=0;entryDx=0;entryDy=0;fontSize=12;startSize=8;endSize=8;endArrow=none;endFill=0;movable=1;resizable=1;rotatable=1;deletable=1;editable=1;locked=0;connectable=1;" edge="1" parent="1" source="hmgdlU0BTKwxbLTxgRv6-20" target="hmgdlU0BTKwxbLTxgRv6-21">
          <mxGeometry relative="1" as="geometry" />
        </mxCell>
        <mxCell id="hmgdlU0BTKwxbLTxgRv6-51" style="edgeStyle=none;curved=1;rounded=0;orthogonalLoop=1;jettySize=auto;html=1;exitX=1;exitY=1;exitDx=0;exitDy=0;entryX=0.5;entryY=0;entryDx=0;entryDy=0;fontSize=12;startSize=8;endSize=8;endArrow=none;endFill=0;movable=1;resizable=1;rotatable=1;deletable=1;editable=1;locked=0;connectable=1;" edge="1" parent="1" source="hmgdlU0BTKwxbLTxgRv6-23" target="hmgdlU0BTKwxbLTxgRv6-25">
          <mxGeometry relative="1" as="geometry" />
        </mxCell>
        <mxCell id="hmgdlU0BTKwxbLTxgRv6-52" style="edgeStyle=none;curved=1;rounded=0;orthogonalLoop=1;jettySize=auto;html=1;exitX=0;exitY=1;exitDx=0;exitDy=0;entryX=0.5;entryY=0;entryDx=0;entryDy=0;fontSize=12;startSize=8;endSize=8;endArrow=none;endFill=0;movable=1;resizable=1;rotatable=1;deletable=1;editable=1;locked=0;connectable=1;" edge="1" parent="1" source="hmgdlU0BTKwxbLTxgRv6-23" target="hmgdlU0BTKwxbLTxgRv6-24">
          <mxGeometry relative="1" as="geometry" />
        </mxCell>
        <mxCell id="hmgdlU0BTKwxbLTxgRv6-49" style="edgeStyle=none;curved=1;rounded=0;orthogonalLoop=1;jettySize=auto;html=1;exitX=1;exitY=1;exitDx=0;exitDy=0;entryX=0.5;entryY=0;entryDx=0;entryDy=0;fontSize=12;startSize=8;endSize=8;endArrow=none;endFill=0;movable=1;resizable=1;rotatable=1;deletable=1;editable=1;locked=0;connectable=1;" edge="1" parent="1" source="hmgdlU0BTKwxbLTxgRv6-27" target="hmgdlU0BTKwxbLTxgRv6-30">
          <mxGeometry relative="1" as="geometry" />
        </mxCell>
        <mxCell id="hmgdlU0BTKwxbLTxgRv6-50" style="edgeStyle=none;curved=1;rounded=0;orthogonalLoop=1;jettySize=auto;html=1;exitX=0;exitY=1;exitDx=0;exitDy=0;entryX=0.5;entryY=0;entryDx=0;entryDy=0;fontSize=12;startSize=8;endSize=8;endArrow=none;endFill=0;movable=1;resizable=1;rotatable=1;deletable=1;editable=1;locked=0;connectable=1;" edge="1" parent="1" source="hmgdlU0BTKwxbLTxgRv6-27" target="hmgdlU0BTKwxbLTxgRv6-29">
          <mxGeometry relative="1" as="geometry" />
        </mxCell>
      </root>
    </mxGraphModel>
  </diagram>
</mxfile>
